# xmcd CD database file
#
# Track frame offsets:
#	150
#	20976
#	37517
#	63969
#	85170
#	118803
#	145808
#	161092
#	188592
#
# Disc length: 2741 seconds
#
# Revision: 4
# Processed by: cddbd v1.5.1PL2 Copyright (c) Steve Scherf et al.
# Submitted via: CDex 1.50
#
DISCID=700ab309
DTITLE=Kevin Prosch and Bryn Haworth - The Finer Things In Life
DYEAR=1997
DGENRE=Folk
TTITLE0=I Need To Sing
TTITLE1=Blue Jumper
TTITLE2=So Much Grace
TTITLE3=The Finer Things In Life
TTITLE4=I Weep For You Now
TTITLE5=I Heard A Voice
TTITLE6=Water From The Rock
TTITLE7=Haley's Song
TTITLE8=When This Passing World Is Done
EXTD=YEAR: 1997
EXTT0=
EXTT1=
EXTT2=
EXTT3=
EXTT4=
EXTT5=
EXTT6=
EXTT7=
EXTT8=
PLAYORDER=
